<svg xmlns="http://www.w3.org/2000/svg" width="22" height="17" viewBox="0 0 22 17">
  <defs>
    <style>
      .cls-1 {
        fill: #a0a0a0;
        fill-rule: evenodd;
      }
    </style>
  </defs>
  <path class="cls-1" d="M1397,1039.17a2.985,2.985,0,0,1-.35,1.36l-6.95-8.01,6.87-6.19a2.854,2.854,0,0,1,.43,1.5v11.34h0Zm-11-5.19,9.56-8.62a2.651,2.651,0,0,0-1.31-.36h-16.5a2.651,2.651,0,0,0-1.31.36Zm2.67-.53-2.22,2a0.652,0.652,0,0,1-.9,0l-2.22-2-7.03,8.11a2.608,2.608,0,0,0,1.45.44h16.5a2.608,2.608,0,0,0,1.45-.44Zm-13.24-7.12a2.854,2.854,0,0,0-.43,1.5v11.34a2.865,2.865,0,0,0,.35,1.36l6.95-8.01Z" transform="translate(-1375 -1025)"/>
</svg>
