<svg xmlns="http://www.w3.org/2000/svg" width="13" height="21" viewBox="0 0 13 21">
  <defs>
    <style>
      .cls-1 {
        fill: #a0a0a0;
        fill-rule: evenodd;
      }
    </style>
  </defs>
  <path class="cls-1" d="M1213.32,1023.01h-9.64a1.6,1.6,0,0,0-1.67,1.53v17.94a1.6,1.6,0,0,0,1.67,1.53h9.64a1.609,1.609,0,0,0,1.67-1.53v-17.94A1.6,1.6,0,0,0,1213.32,1023.01Zm-7.2.93h4.76a0.323,0.323,0,0,1,.22.37,0.318,0.318,0,0,1-.22.36h-4.76a0.318,0.318,0,0,1-.22-0.36A0.323,0.323,0,0,1,1206.12,1023.94Zm2.38,18.56a0.978,0.978,0,1,1,1.06-.98A1.02,1.02,0,0,1,1208.5,1042.5Zm5.24-3.35h-10.48v-13.56h10.48v13.56Z" transform="translate(-1202 -1023)"/>
</svg>
